<svg width="879" height="788" viewBox="0 0 879 788" fill="none" xmlns="http://www.w3.org/2000/svg">
<path d="M365.667 1.13323C310.6 3.79989 254.6 17.5332 207.533 40.1999C171 57.6666 140.867 76.7332 111.533 100.733C73 132.467 45.9334 165.8 26.3334 205.667C15.1334 228.467 9.93337 243.133 5.6667 264.2C0.600037 289.267 -0.86663 309.933 0.866704 331.4C5.00004 380.2 22.6 420.867 58.8667 464.6C66.6 473.933 71.9334 482.2 76.0667 490.6C83.2667 505.933 90.7334 518.067 102.467 533.933C136.067 579.133 178.733 612.333 230.733 633.533C233.4 634.6 235.667 636.333 235.667 637.4C235.667 640.467 225.533 659.933 217.133 672.867C208.067 686.867 207 692.067 211.667 699C213.267 701.133 217.667 709.267 221.667 717C229.667 732.467 236.867 744.333 251.267 765.933C263.533 784.333 266.333 785.933 288.067 787.133C320.2 788.867 361.267 776.333 386.6 757.133C396.067 749.933 407.667 736.467 413.267 726.2C419.533 715 425.933 696.467 431.667 673.533L437.4 650.733L490.2 649.933C558.733 649 583.4 646.6 632.333 636.067C697.4 622.2 755.533 597 797.667 564.6C828.467 540.867 857.133 501.667 868.467 468.2C882.733 425.4 882.467 371.933 867.667 326.333C857.533 295.133 841.4 266.467 818.067 238.467C809.533 228.067 804.467 220.6 799.533 210.333C776.333 162.333 735.667 118.6 679 80.8666C595.267 25.1332 479.667 -4.20011 365.667 1.13323ZM434.333 21.6666C516.6 29.2666 596.467 55.9332 658.333 96.7332C689.8 117.4 724.333 147.933 744.6 173C783.4 221 803.533 277.533 800.867 330.333C799.4 360.467 790.333 385.133 768.867 417C751.933 442.333 730.733 461.8 696.333 483.267C661.667 505 576.733 534.2 511 546.867C479.933 552.867 407.4 564.867 389.4 567C379.8 568.067 371 569.4 369.933 569.8C368.733 570.2 366.6 576.067 364.467 584.733C360.2 601.533 353.133 621.133 347.267 632.2C339.933 645.933 319.667 664.2 301.667 673.4C291.667 678.467 273.8 684.467 263.4 686.333C254.733 687.933 233.267 688.467 231.933 687C231.533 686.6 232.2 684.6 233.4 682.6C242.467 668.467 251 646.733 255 627.667C259.133 607.533 258.733 575.8 254.067 565.667C253 563.267 248.6 561.533 231.933 556.333C195.133 545.133 168.867 533.267 141.8 515.667C121.667 502.467 113.267 495.933 96.6 479.8C53.4 437.933 26.7334 392.2 18.3334 345C15 325.8 15.4 296.467 19.5334 277C30.0667 227.133 57.4 180.333 100.6 138.333C160.467 79.7999 245.933 36.7332 326.333 24.3332C358.6 19.3999 398.733 18.4666 434.333 21.6666ZM831.667 306.467C840.2 323.267 851.933 355.933 849.933 357.8C849.667 358.067 845.4 353 840.6 346.333C835.667 339.667 830.2 333.533 828.333 332.733C825.133 331.267 825 330.733 825 319.8C824.867 313.533 824.6 305 824.2 301C823.667 294.067 823.667 293.8 825.667 296.333C826.867 297.8 829.667 302.333 831.667 306.467ZM847.8 380.6L855.667 390.067V406.2C855.667 415.133 855.267 422.333 854.733 422.333C854.067 422.333 851.4 418.467 848.6 413.667C844.067 405.8 832.467 388.867 822.333 375L818.467 369.667L821 356.333C822.467 349 823.667 342.733 823.667 342.333C823.667 341.933 827.4 348.2 831.8 356.333C836.333 364.333 843.533 375.267 847.8 380.6ZM824.467 401.933C830.067 410.6 838.733 422.333 843.8 427.933L852.867 438.333L851 444.6C849.8 448.2 848.333 453.267 847.4 455.933C846.6 458.733 845.533 461 845 461C844.6 461 843.133 458.867 841.933 456.333C838.467 449 823.533 426.467 816.2 417.667C812.6 413.267 808.867 408.6 807.8 407.267C806.2 405.267 806.467 403.8 809.667 395.667C811.8 390.467 813.667 386.333 813.933 386.333C814.2 386.333 818.867 393.4 824.467 401.933ZM812.333 437.933C819 448.6 827.533 461.667 831.4 466.867C835.133 472.067 838.2 476.6 838.067 477C831.4 490.333 820.867 505.4 819.267 503.667C819 503.267 816.467 498.867 813.667 493.8C810.867 488.733 802.467 475.4 794.867 464.067L781.267 443.4L789.933 430.867C794.6 423.933 799 418.333 799.533 418.333C800.067 418.333 805.8 427.133 812.333 437.933ZM786.467 477.267C793.933 489.933 802.2 503.267 804.867 507C807.667 510.6 810.333 514.467 810.867 515.4C811.933 517.133 796.067 534.733 794.333 533.667C793.8 533.267 791.667 529.933 789.667 526.2C786.867 520.733 761.933 481.4 756.333 473.533C755.4 472.2 757.133 469.533 763.667 463C768.333 458.2 772.467 454.333 772.6 454.333C772.733 454.333 779 464.733 786.467 477.267ZM757.133 503.533C763.533 515.4 771.933 529.8 775.667 535.267C779.4 540.733 782.2 545.667 781.8 546.067C779.667 548.2 756.2 565 755.267 565C754.733 565 752.067 560.067 749.267 553.933C743.8 542.333 728.467 514.867 722.067 505.4C720.067 502.333 718.333 499.533 718.333 499.267C718.333 498.867 721.4 496.6 725.133 494.2C729 491.8 734.467 487.8 737.4 485.4C740.333 482.867 743.267 481.133 743.933 481.267C744.733 481.533 750.6 491.533 757.133 503.533ZM717.667 528.6C729.8 551.8 735 560.333 740.733 566.6C745 571.267 743.8 572.867 731.133 579L721.667 583.533L720.867 577.8C719.667 569.933 715 561.267 699 537.533L685.267 517.133L694.867 511.8C700.067 508.867 704.733 506.467 705.267 506.467C705.667 506.333 711.4 516.333 717.667 528.6ZM120.6 521.267C123.8 523.4 127.267 527 128.467 529.4C129.8 531.667 133.933 538.6 137.933 544.733C141.933 550.867 145 556.067 144.733 556.333C144.067 556.867 124.733 535 117.8 525.667C109.133 514.2 109.4 513.667 120.6 521.267ZM676.333 530.6C686.867 550.2 706.867 578.333 713.267 582.867C714.867 584.067 715.933 585.133 715.533 585.533C713.533 587.4 685.267 599.667 683 599.667C682.733 599.667 680.2 595 677.4 589.267C674.467 583.667 665.533 569.533 657.267 558.067C649 546.6 642.333 536.733 642.333 535.933C642.333 534.867 668.067 523.933 671.133 523.8C671.933 523.667 674.333 526.867 676.333 530.6ZM156.733 541.8L167.8 547.267L179.933 569.8C186.467 582.2 192.6 593.133 193.267 593.933C195.133 596.2 193.667 596.067 188.6 593.533C180.333 589.267 174.6 583.533 169 574.067C165.8 568.733 159.933 559.533 155.8 553.667C146.733 540.733 143.267 535.267 144.6 535.933C145.133 536.2 150.6 538.867 156.733 541.8ZM638.6 555.133C653.8 579.533 658.6 586.733 665.4 594.733C669 599 671.667 602.733 671.267 603.133C670.067 604.333 651.533 610.333 646.333 611.133L641.133 611.933L635.267 600.067C631.933 593.533 622.6 579.267 614.333 568.467C606.2 557.533 599.8 548.333 600.2 547.933C601.267 547 626.733 539.933 628.333 540.2C629.133 540.467 633.667 547.133 638.6 555.133ZM600.467 575.933C608.467 589.4 617.8 603.667 621.267 607.933C624.733 612.067 627.133 615.933 626.333 616.333C624.733 617.267 601.267 622.333 598.2 622.333C596.467 622.333 594.067 618.6 589.933 609.8C583.4 596.2 580.067 590.733 566.067 572.2C557.667 560.867 555.533 557 558.067 557C558.6 557 564.467 555.8 571 554.467C577.667 553 583.667 551.8 584.467 551.8C585.4 551.667 592.6 562.6 600.467 575.933ZM196.867 557.667L207.533 561.133L216.733 576.733C221.933 585.267 229.4 597.4 233.533 603.667C241 614.867 241.933 617.4 239.8 620.867C238.867 622.2 236.067 621.267 226.333 616.2L213.933 609.667L203.133 588.333C197.133 576.6 190.333 564.2 187.933 560.6C185.533 557.133 184.2 554.333 184.867 554.333C185.533 554.333 191 555.8 196.867 557.667ZM553 580.6C559.8 592.2 567.133 604.6 569.267 608.333C571.533 611.933 575.133 617 577.4 619.4C582.6 624.733 581.8 625.533 568.067 627.533C551.8 629.933 552.6 630.2 545.533 618.6C538.2 606.867 533.933 601 517.8 580.333C511.533 572.2 506.333 565.267 506.333 564.867C506.333 564.467 513.667 563.267 522.733 562.067C531.667 561 539.4 559.933 539.8 559.8C540.333 559.8 546.333 569.133 553 580.6ZM244.867 580.867C244.733 587.933 244.333 595.4 243.8 597.533L243 601.4L239.8 595.533C238.067 592.333 233 584.067 228.733 577.133C224.467 570.333 221 564.6 221 564.467C221 564.2 226.467 565 233 566.067L245 568.067L244.867 580.867ZM497.667 575.4C507.533 592.2 523.667 615.4 530.467 622.867C534.333 627 537.133 630.733 536.867 631C536.467 631.267 529.4 631.933 521 632.467L505.667 633.267L503.4 626.867C501.8 622.467 496.733 615.267 487.533 604.333C472.467 586.733 461 572.333 460.6 570.733C460.333 569.533 476.467 566.733 485.667 566.6L492.333 566.333L497.667 575.4ZM455.267 580.733C460.467 591.267 480.6 620.467 488.6 628.867C491.8 632.067 494.2 635 493.933 635.133C493.8 635.4 487.133 635.667 479.133 635.8L464.733 636.067L461.133 629.533C457.133 622.067 436.2 595.933 425.267 584.733C416.867 576.067 415.933 577.133 435 573.8C451.267 570.867 450.467 570.6 455.267 580.733ZM412.067 582.2C413 586.6 417.4 593.8 434.6 618.867C441.133 628.333 446.2 636.2 446.067 636.333C445.8 636.467 442.333 637 438.333 637.4L431 638.067L421.8 623.8C416.6 616.067 408.333 604.067 403.267 597.267C398.333 590.333 393.8 583.933 393.533 583.133C393.133 581.933 395.133 581 399.933 580.067C411 577.933 411.267 577.933 412.067 582.2ZM398.333 613.933C408.2 629.8 418.067 644.733 420.067 647.133L423.8 651.533L418.867 669.267C416.2 679 413.533 687.8 413 688.867C412.333 690.067 409.533 685.4 404.733 675.533C400.733 667.133 391.133 651 383.533 639.667L369.533 619L373 605.667C375 598.333 377 590.733 377.533 588.6C377.933 586.6 378.867 585 379.4 585C379.933 585 388.467 598.067 398.333 613.933ZM377.667 654.6C390.733 680.2 399.4 693.533 405.133 696.867C407.267 698.067 409 699.4 409 699.933C409 702.2 402.2 716.067 398.2 721.8C387.933 736.733 367.267 752.6 347.4 760.867C328.733 768.733 329.4 768.867 325.133 757C320.867 744.733 314.467 733.133 300.6 712.467C294.867 703.8 290.6 696.333 291.267 695.8C292.333 694.733 315 685 316.2 685C316.6 685 323 696.733 330.333 711C346.2 741.4 354.067 753 359 753C367.133 753 360.867 736.467 340.733 704.733C333 692.867 326.333 682.2 325.8 681.267C325.133 680.2 326.2 678.467 328.6 676.6C330.6 675 335.133 671.133 338.467 668.067C343.133 663.667 345 662.733 345.933 663.933C346.733 664.867 351.933 673.8 357.667 683.667C370.6 706.333 385.133 728.733 387.4 729.667C390.067 730.6 391.667 729.267 391.667 726.2C391.667 721 377.133 693 364.6 673.8L351.8 654.467L357.8 644.067C361 638.467 363.667 633.267 363.667 632.733C363.667 628.867 367.267 634.6 377.667 654.6ZM293.667 723.667C300.067 735 309 749.667 313.4 756.067C317.8 762.467 321 768.067 320.6 768.467C319.267 769.8 309.8 771.667 303.667 771.667H297.533L293.133 762.6C287.933 751.933 275.8 732.867 263.933 716.6C259.133 710.2 255.667 704.6 256.067 704.2C256.467 703.8 261.8 702.467 267.933 701.133C277.933 699.133 279.133 699.133 280.467 700.867C281.267 702.067 287.267 712.333 293.667 723.667ZM243.933 705.267C247.933 708.6 282.733 767.267 281.933 769.667C281.667 770.333 279.267 771.133 276.6 771.4C271.933 771.8 271.8 771.8 261.533 756.067C250.467 739.133 231.667 706.867 231.667 704.867C231.667 703 241.533 703.4 243.933 705.267Z" fill="#FFF6F6"/>
<path d="M410.067 36.3333C406.867 38.0667 406.333 39.2667 406.333 44.3333C406.333 51.6667 408.467 53 419.267 53C430.067 53 431.933 51.4 431.4 42.3333L431 35L422.333 34.7333C416.6 34.4667 412.467 35 410.067 36.3333Z" fill="#FFF6F6"/>
<path d="M342.333 41.6666C305.4 48.6 290.2 55.6666 293.4 64.2C294.6 67.1333 299 66.8666 317.667 63C326.467 61.2666 342.067 58.4666 352.333 57C374.867 53.5333 378.333 52.0666 378.333 45.6666C378.333 42.4666 377.533 40.7333 375.8 39.6666C371.8 37.6666 360.733 38.2 342.333 41.6666Z" fill="#FFF6F6"/>
<path d="M249.267 66.9999C241 68.8666 216.2 78.8666 200.467 86.7333C172.6 100.6 126.733 135.133 110.333 154.6C101.667 164.867 95.6667 176.333 95.6667 182.2C95.6667 189.8 100.2 187.4 117 171.133C125.533 162.867 135.8 153.4 139.933 150.2C143.933 147 151.933 140.467 157.8 135.8C181.533 116.6 216.333 96.4666 241 87.6666C263 79.9333 267.533 76.8666 267.667 70.1999C267.667 64.5999 263.8 63.9333 249.267 66.9999Z" fill="#FFF6F6"/>
</svg>
