<svg width="616" height="429" viewBox="0 0 616 429" fill="none" xmlns="http://www.w3.org/2000/svg">
<g clip-path="url(#clip0_1_2)">
<path d="M229.467 18.5998C175.016 21.6294 149.383 23.7502 123.025 27.6886C65.6772 36.1715 35.4101 48.9968 19.4799 71.4157C11.37 82.8272 9.19781 90.0982 7.17034 112.012C6.44624 121.403 4.99805 134.431 4.12913 140.793C-0.215438 175.33 -1.51881 269.45 2.10167 295.605C6.44624 327.012 13.9768 343.068 30.4862 355.389C39.8995 362.356 50.3264 366.699 65.8221 369.93C86.3864 374.375 98.8408 375.283 144.748 375.99L188.919 376.596L188.484 380.636C187.325 391.744 179.795 400.631 163.72 409.921C157.203 413.658 151.989 416.991 151.989 417.394C151.989 417.697 154.887 420.324 158.362 423.05L164.588 428.099L178.201 427.998C193.263 427.998 203.255 426.281 219.331 421.131C237.433 415.274 250.611 405.782 266.976 386.998C269.728 383.766 271.899 383.261 303.471 379.121L326.496 375.99L379.355 376.697C436.559 377.404 436.559 377.404 482.177 371.446C508.535 367.912 541.119 358.52 564.145 347.814C576.164 342.16 593.254 329.739 599.481 322.165C609.328 310.147 611.211 304.492 613.527 282.174C614.686 269.45 615.266 255.312 614.687 245.314C610.486 165.131 607.157 139.481 596.439 102.116C586.157 66.2653 570.227 44.2504 546.767 33.1419C536.774 28.4965 516.934 24.1541 495.935 22.2354C486.377 21.3265 459.295 20.1147 435.835 19.5088C380.08 18.095 249.886 17.489 229.467 18.5998ZM388.044 35.7675C504.625 37.8882 528.519 40.8168 544.304 54.7529C562.551 71.0117 575.585 106.155 582.681 158.466C589.633 209.464 591.225 287.223 585.578 300.351C577.033 320.347 556.18 333.677 514.326 346.098C494.197 352.056 481.308 354.278 437.284 358.923C419.906 360.842 411.651 361.044 361.253 360.943L304.774 360.842L283.34 363.871C254.231 368.113 252.928 368.618 241.922 381.848C234.392 391.037 223.096 399.723 213.682 403.458C203.255 407.599 202.242 407.296 206.297 401.035C211.944 392.552 214.552 383.666 213.973 375.486C213.392 366.901 210.642 363.568 201.952 360.539C196.883 358.722 191.525 358.52 145.617 357.914C97.3926 357.206 94.0619 357.005 80.5937 354.581C49.4575 348.825 39.3202 340.948 31.7895 316.509C26.2865 299.14 25.5624 288.536 25.852 231.176C25.9968 179.673 26.7209 165.736 30.3414 133.219C31.0655 126.554 32.0793 116.052 32.5137 109.993C34.686 84.14 43.2304 71.3148 65.3877 60.913C89.5724 49.4006 136.493 41.5237 202.677 37.7872C254.811 34.7576 304.629 34.2527 388.044 35.7675Z" fill="white"/>
</g>
<defs>
<clipPath id="clip0_1_2">
<rect width="616" height="429" fill="white"/>
</clipPath>
</defs>
</svg>
