<svg width="567" height="476" viewBox="0 0 567 476" fill="none" xmlns="http://www.w3.org/2000/svg">
<rect width="567" height="476" fill="#1E1E1E"/>
<path d="M211.214 20.6376C161.094 23.9991 137.5 26.3522 113.239 30.7221C60.4529 40.1343 32.5934 54.3647 17.9304 79.2398C10.4656 91.9015 8.46617 99.9691 6.59997 124.284C5.93347 134.704 4.60048 149.159 3.80068 156.218C-0.198299 194.539 -1.39799 298.97 1.93449 327.991C5.93347 362.839 12.865 380.654 28.0612 394.324C36.7257 402.055 46.3232 406.874 60.5863 410.459C79.5148 415.39 90.9785 416.398 133.234 417.182L173.891 417.855L173.491 422.337C172.424 434.662 165.493 444.523 150.697 454.831C144.698 458.977 139.899 462.675 139.899 463.123C139.899 463.459 142.566 466.373 145.765 469.398L151.496 475L164.026 474.888C177.89 474.888 187.087 472.983 201.884 467.269C218.546 460.77 230.676 450.238 245.739 429.396C248.272 425.81 250.271 425.25 279.331 420.656L300.525 417.182L349.179 417.967C401.833 418.751 401.833 418.751 443.822 412.14C468.083 408.219 498.075 397.798 519.27 385.92C530.333 379.646 546.063 365.864 551.795 357.46C560.859 344.126 562.592 337.851 564.724 313.088C565.791 298.97 566.324 283.283 565.791 272.19C561.925 183.222 558.86 154.762 548.995 113.303C539.531 73.5252 524.868 49.0983 503.274 36.7728C494.076 31.6185 475.814 26.8004 456.486 24.6714C447.688 23.663 422.76 22.3184 401.166 21.6461C349.846 20.0774 230.009 19.4051 211.214 20.6376ZM357.177 39.6861C464.484 42.0391 486.478 45.2886 501.007 60.7515C517.803 78.7916 529.8 117.785 536.331 175.827C542.73 232.412 544.196 318.69 538.998 333.257C531.133 355.443 511.938 370.234 473.414 384.016C454.886 390.626 443.022 393.092 402.5 398.246C386.504 400.375 378.906 400.599 332.517 400.487L280.531 400.375L260.802 403.736C234.008 408.442 232.809 409.003 222.678 423.682C215.747 433.878 205.35 443.515 196.685 447.66C187.087 452.254 186.155 451.918 189.887 444.971C195.085 435.559 197.485 425.699 196.952 416.623C196.418 407.098 193.886 403.4 185.888 400.039C181.222 398.022 176.29 397.798 134.034 397.126C89.6455 396.341 86.5797 396.117 74.1828 393.428C45.5234 387.041 36.1925 378.301 29.2608 351.185C24.1955 331.913 23.529 320.147 23.7956 256.503C23.9289 199.357 24.5954 183.894 27.9279 147.814C28.5944 140.419 29.5275 128.766 29.9274 122.043C31.9269 93.3581 39.7916 79.1278 60.1864 67.5865C82.4473 54.8128 125.636 46.0729 186.555 41.9271C234.542 38.5656 280.397 38.0053 357.177 39.6861Z" fill="white"/>
</svg>
