<svg width="567" height="542" viewBox="0 0 567 542" fill="none" xmlns="http://www.w3.org/2000/svg">
<g clip-path="url(#clip0_0_1)">
<path d="M212 0.999988C161.867 4.99999 138.267 7.79999 114 13C61.2 24.2 33.3333 41.1333 18.6667 70.7333C11.2 85.8 9.20001 95.4 7.33334 124.333C6.66667 136.733 5.33334 153.933 4.53334 162.333C0.53334 207.933 -0.66666 332.2 2.66667 366.733C6.66667 408.2 13.6 429.4 28.8 445.667C37.4667 454.867 47.0667 460.6 61.3333 464.867C80.2667 470.733 91.7333 471.933 134 472.867L174.667 473.667L174.267 479C173.2 493.667 166.267 505.4 151.467 517.667C145.467 522.6 140.667 527 140.667 527.533C140.667 527.933 143.333 531.4 146.533 535L152.267 541.667L164.8 541.533C178.667 541.533 187.867 539.267 202.667 532.467C219.333 524.733 231.467 512.2 246.533 487.4C249.067 483.133 251.067 482.467 280.133 477L301.333 472.867L350 473.8C402.667 474.733 402.667 474.733 444.667 466.867C468.933 462.2 498.933 449.8 520.133 435.667C531.2 428.2 546.933 411.8 552.667 401.8C561.733 385.933 563.467 378.467 565.6 349C566.667 332.2 567.2 313.533 566.667 300.333C562.8 194.467 559.733 160.6 549.867 111.267C540.4 63.9333 525.733 34.8667 504.133 20.2C494.933 14.0667 476.667 8.33332 457.333 5.79999C448.533 4.59999 423.6 2.99999 402 2.19999C350.667 0.333321 230.8 -0.466679 212 0.999988ZM358 23.6667C465.333 26.4667 487.333 30.3333 501.867 48.7333C518.667 70.2 530.667 116.6 537.2 185.667C543.6 253 545.067 355.667 539.867 373C532 399.4 512.8 417 474.267 433.4C455.733 441.267 443.867 444.2 403.333 450.333C387.333 452.867 379.733 453.133 333.333 453L281.333 452.867L261.6 456.867C234.8 462.467 233.6 463.133 223.467 480.6C216.533 492.733 206.133 504.2 197.467 509.133C187.867 514.6 186.933 514.2 190.667 505.933C195.867 494.733 198.267 483 197.733 472.2C197.2 460.867 194.667 456.467 186.667 452.467C182 450.067 177.067 449.8 134.8 449C90.4 448.067 87.3333 447.8 74.9333 444.6C46.2667 437 36.9333 426.6 30 394.333C24.9333 371.4 24.2667 357.4 24.5333 281.667C24.6667 213.667 25.3333 195.267 28.6667 152.333C29.3333 143.533 30.2667 129.667 30.6667 121.667C32.6667 87.5333 40.5333 70.6 60.9333 56.8667C83.2 41.6667 126.4 31.2667 187.333 26.3333C235.333 22.3333 281.2 21.6667 358 23.6667Z" fill="url(#paint0_linear_0_1)"/>
</g>
<defs>
<linearGradient id="paint0_linear_0_1" x1="309.277" y1="542.915" x2="304.527" y2="118.752" gradientUnits="userSpaceOnUse">
<stop offset="0.379808" stop-color="#FFFCAE"/>
<stop offset="0.697115" stop-color="#FFFDD2"/>
<stop offset="0.903846" stop-color="white"/>
</linearGradient>
<clipPath id="clip0_0_1">
<rect width="567" height="542" fill="white"/>
</clipPath>
</defs>
</svg>
