<svg width="786" height="618" viewBox="0 0 786 618" fill="none" xmlns="http://www.w3.org/2000/svg">
<g clip-path="url(#clip0_0_1)">
<path d="M293.311 26.7577C223.71 31.1212 190.945 34.1758 157.254 39.8483C83.9505 52.0661 45.2622 70.5384 24.8998 102.828C14.5335 119.264 11.7569 129.737 9.16533 161.3C8.23976 174.826 6.38865 193.59 5.27797 202.753C-0.275379 252.497 -1.94138 388.057 2.68641 425.729C8.23976 470.965 17.8655 494.09 38.9684 511.835C51.0007 521.871 64.3287 528.126 84.1357 532.78C110.422 539.181 126.341 540.489 185.021 541.507L241.481 542.38L240.926 548.198C239.444 564.197 229.819 576.998 209.272 590.378C200.941 595.76 194.277 600.56 194.277 601.142C194.277 601.578 197.98 605.361 202.423 609.288L210.381 616.559L227.782 616.414C247.034 616.414 259.806 613.941 280.355 606.524C303.493 598.088 320.338 584.416 341.256 557.361C344.773 552.707 347.549 551.98 387.905 546.016L417.337 541.507L484.902 542.526C558.022 543.543 558.022 543.543 616.332 534.962C650.023 529.872 691.673 516.345 721.106 500.926C736.469 492.782 758.314 474.891 766.273 463.982C778.861 446.674 781.267 438.528 784.228 406.384C785.71 388.057 786.45 367.694 785.71 353.294C780.341 237.806 776.085 200.863 762.385 147.045C749.243 95.4104 728.88 63.7022 698.893 47.7026C686.12 41.0119 660.759 34.7576 633.919 31.9939C621.701 30.6849 587.084 28.9395 557.096 28.0668C485.828 26.0305 319.412 25.1578 293.311 26.7577ZM496.009 51.4843C645.025 54.5387 675.568 58.7568 695.745 78.829C719.069 102.247 735.729 152.863 744.799 228.207C753.685 301.659 755.721 413.656 748.502 432.565C737.58 461.364 710.924 480.564 657.426 498.454C631.697 507.035 615.221 510.236 558.949 516.926C536.735 519.69 526.184 519.98 461.764 519.835L389.571 519.69L362.174 524.053C324.965 530.161 323.3 530.89 309.231 549.944C299.606 563.18 285.168 575.689 273.135 581.07C259.806 587.033 258.512 586.597 263.695 577.579C270.913 565.362 274.246 552.562 273.506 540.781C272.764 528.417 269.248 523.616 258.141 519.254C251.662 516.635 244.813 516.345 186.132 515.472C124.49 514.453 120.233 514.162 103.017 510.672C63.218 502.381 50.2602 491.036 40.6342 455.837C33.6001 430.82 32.6745 415.547 33.0448 332.931C33.2299 258.751 34.1554 238.679 38.7833 191.844C39.7088 182.244 41.0046 167.118 41.56 158.391C44.3366 121.155 55.2583 102.683 83.5804 87.7014C114.494 71.1201 174.47 59.7749 259.067 54.3933C325.707 50.0298 389.385 49.3025 496.009 51.4843Z" fill="white"/>
</g>
<defs>
<clipPath id="clip0_0_1">
<rect width="786" height="618" fill="white"/>
</clipPath>
</defs>
</svg>
