<svg width="708" height="538" viewBox="0 0 708 538" fill="none" xmlns="http://www.w3.org/2000/svg">
<g clip-path="url(#clip0_0_1)">
<path d="M264.204 23.2939C201.51 27.0926 171.996 29.7517 141.649 34.6899C75.6195 45.3262 40.7705 61.4072 22.4288 89.5173C13.0912 103.826 10.5902 112.942 8.25579 140.419C7.42208 152.195 5.75466 168.529 4.7542 176.507C-0.248051 219.811 -1.74872 337.823 2.41982 370.618C7.42208 409.998 16.0926 430.13 35.1013 445.578C45.9396 454.314 57.9449 459.76 75.7864 463.811C99.4637 469.384 113.803 470.523 166.66 471.409L217.517 472.169L217.017 477.234C215.682 491.162 207.012 502.305 188.504 513.954C181 518.639 174.997 522.818 174.997 523.324C174.997 523.704 178.333 526.997 182.335 530.415L189.504 536.746L205.177 536.619C222.52 536.619 234.024 534.467 252.533 528.01C273.376 520.665 288.549 508.764 307.391 485.211C310.559 481.159 313.06 480.526 349.41 475.335L375.922 471.409L436.782 472.296C502.646 473.182 502.646 473.182 555.169 465.711C585.517 461.28 623.034 449.504 649.546 436.081C663.385 428.991 683.061 413.417 690.231 403.92C701.569 388.852 703.737 381.761 706.404 353.777C707.738 337.823 708.405 320.096 707.738 307.561C702.903 207.022 699.069 174.861 686.729 128.01C674.89 83.0595 656.549 55.4559 629.537 41.5275C618.031 35.7029 595.188 30.2582 571.011 27.8523C560.005 26.7128 528.823 25.1933 501.812 24.4336C437.616 22.6609 287.714 21.9012 264.204 23.2939ZM446.787 44.8197C581.015 47.4787 608.527 51.1508 626.701 68.6246C647.711 89.0108 662.718 133.075 670.887 198.666C678.892 262.609 680.726 360.108 674.224 376.569C664.385 401.641 640.375 418.355 592.186 433.93C569.009 441.399 554.169 444.186 503.48 450.01C483.471 452.416 473.967 452.669 415.94 452.543L350.912 452.416L326.233 456.214C292.717 461.532 291.217 462.166 278.544 478.754C269.874 490.276 256.869 501.166 246.03 505.85C234.024 511.042 232.858 510.662 237.526 502.812C244.029 492.176 247.031 481.033 246.364 470.777C245.696 460.013 242.529 455.834 232.524 452.036C226.688 449.757 220.518 449.504 167.661 448.744C112.136 447.857 108.301 447.604 92.794 444.566C56.9445 437.348 45.2726 427.471 36.6018 396.829C30.2657 375.051 29.432 361.754 29.7655 289.834C29.9323 225.256 30.766 207.782 34.9345 167.01C35.7683 158.653 36.9355 145.484 37.4357 137.887C39.9368 105.472 49.7746 89.3908 75.2862 76.3485C103.132 61.9136 157.156 52.0371 233.359 47.3521C293.385 43.5535 350.744 42.9203 446.787 44.8197Z" fill="white"/>
</g>
<defs>
<clipPath id="clip0_0_1">
<rect width="708" height="538" fill="white"/>
</clipPath>
</defs>
</svg>
