<svg width="740" height="578" viewBox="0 0 740 578" fill="none" xmlns="http://www.w3.org/2000/svg">
<g clip-path="url(#clip0_0_1)">
<path d="M276.145 25.0258C210.618 29.1069 179.77 31.9637 148.051 37.2691C79.0374 48.6961 42.6133 65.9728 23.4426 96.1729C13.6829 111.545 11.0688 121.34 8.62893 150.86C7.75754 163.51 6.01476 181.06 4.96908 189.63C-0.259262 236.154 -1.82776 362.94 2.52919 398.174C7.75754 440.482 16.82 462.11 36.6878 478.707C48.0159 488.093 60.5639 493.943 79.2118 498.296C103.959 504.282 118.947 505.506 174.193 506.458L227.349 507.275L226.826 512.716C225.431 527.68 216.369 539.652 197.024 552.166C189.181 557.2 182.907 561.689 182.907 562.233C182.907 562.641 186.394 566.179 190.576 569.852L198.069 576.653L214.451 576.517C232.577 576.517 244.601 574.204 263.947 567.267C285.731 559.377 301.591 546.59 321.284 521.286C324.596 516.933 327.209 516.253 365.203 510.675L392.912 506.458L456.524 507.411C525.365 508.363 525.365 508.363 580.262 500.336C611.981 495.576 651.193 482.924 678.904 468.504C693.368 460.886 713.934 444.154 721.428 433.951C733.278 417.763 735.544 410.145 738.332 380.081C739.727 362.94 740.424 343.895 739.727 330.428C734.672 222.414 730.665 187.862 717.767 137.528C705.394 89.235 686.223 59.579 657.991 44.6151C645.965 38.3574 622.089 32.5079 596.819 29.9231C585.316 28.6989 552.725 27.0664 524.493 26.2502C457.396 24.3457 300.718 23.5295 276.145 25.0258ZM466.98 48.152C607.276 51.0087 636.031 54.9538 655.027 73.7268C676.986 95.6287 692.671 142.969 701.21 213.436C709.576 282.134 711.493 386.882 704.697 404.567C694.414 431.502 669.318 449.46 618.951 466.192C594.727 474.217 579.216 477.211 526.237 483.468C505.323 486.053 495.389 486.325 434.739 486.189L366.772 486.053L340.978 490.133C305.947 495.847 304.379 496.528 291.134 514.349C282.072 526.728 268.479 538.428 257.15 543.46C244.601 549.038 243.383 548.63 248.262 540.195C255.058 528.769 258.196 516.798 257.499 505.779C256.801 494.215 253.491 489.725 243.034 485.645C236.933 483.196 230.485 482.924 175.239 482.108C117.204 481.155 113.196 480.883 96.9881 477.619C59.5182 469.865 47.3188 459.254 38.2562 426.333C31.6337 402.935 30.7623 388.651 31.1109 311.382C31.2851 242.003 32.1565 223.23 36.5135 179.427C37.3849 170.449 38.6049 156.301 39.1277 148.139C41.7419 113.313 52.0244 96.0369 78.6889 82.025C107.793 66.5168 164.259 55.906 243.906 50.8727C306.645 46.7916 366.597 46.1114 466.98 48.152Z" fill="white"/>
</g>
<defs>
<clipPath id="clip0_0_1">
<rect width="740" height="578" fill="white"/>
</clipPath>
</defs>
</svg>
