<svg width="691" height="442" viewBox="0 0 691 442" fill="none" xmlns="http://www.w3.org/2000/svg">
<g clip-path="url(#clip0_0_1)">
<path d="M257.86 19.1374C196.671 22.2582 167.867 24.4428 138.248 28.4999C73.8038 37.2382 39.7916 50.4498 21.8903 73.544C12.7769 85.2991 10.3359 92.7891 8.05756 115.363C7.24386 125.037 5.61648 138.457 4.64005 145.011C-0.242095 180.588 -1.70674 277.543 2.36172 304.486C7.24386 336.839 15.7062 353.378 34.2585 366.07C44.8365 373.247 56.5536 377.721 73.9667 381.05C97.0755 385.627 111.071 386.563 162.658 387.291L212.294 387.916L211.806 392.077C210.503 403.52 202.042 412.675 183.978 422.245C176.654 426.094 170.795 429.527 170.795 429.943C170.795 430.255 174.051 432.96 177.957 435.769L184.954 440.97L200.251 440.866C217.177 440.866 228.405 439.097 246.47 433.792C266.811 427.758 281.62 417.981 300.01 398.631C303.102 395.301 305.543 394.782 341.021 390.516L366.895 387.291L426.294 388.02C490.577 388.748 490.577 388.748 541.839 382.61C571.458 378.97 608.074 369.295 633.95 358.267C647.456 352.443 666.66 339.647 673.658 331.845C684.724 319.466 686.839 313.64 689.442 290.65C690.745 277.543 691.396 262.979 690.745 252.68C686.025 170.082 682.283 143.659 670.239 105.168C658.685 68.2385 640.784 45.5604 614.421 34.1174C603.192 29.3321 580.897 24.859 557.3 22.8824C546.559 21.9462 516.126 20.6978 489.763 20.0737C427.109 18.6173 280.806 17.9931 257.86 19.1374ZM436.059 36.8221C567.064 39.0066 593.916 42.0235 611.653 56.3793C632.159 73.1278 646.805 109.33 654.779 163.216C662.591 215.75 664.381 295.851 658.035 309.375C648.433 329.972 624.998 343.704 577.967 356.5C555.347 362.636 540.863 364.926 491.391 369.711C471.863 371.687 462.587 371.895 405.953 371.791L342.486 371.687L318.4 374.808C285.688 379.177 284.224 379.698 271.856 393.326C263.394 402.792 250.701 411.739 240.122 415.587C228.405 419.852 227.267 419.54 231.823 413.091C238.169 404.352 241.099 395.198 240.448 386.772C239.797 377.929 236.705 374.496 226.941 371.376C221.245 369.503 215.223 369.295 163.635 368.671C109.444 367.942 105.701 367.734 90.5659 365.238C55.5771 359.308 44.1855 351.194 35.723 326.019C29.539 308.127 28.7253 297.203 29.0508 238.116C29.2135 185.061 30.0272 170.705 34.0957 137.209C34.9094 130.343 36.0486 119.524 36.5368 113.283C38.9779 86.6515 48.5795 73.44 73.4784 62.725C100.656 50.8658 153.382 42.7516 227.755 38.9027C286.34 35.7818 342.322 35.2616 436.059 36.8221Z" fill="white"/>
</g>
<defs>
<clipPath id="clip0_0_1">
<rect width="691" height="442" fill="white"/>
</clipPath>
</defs>
</svg>
