<svg width="567" height="542" viewBox="0 0 567 542" fill="none" xmlns="http://www.w3.org/2000/svg">
<path d="M211.268 0.758781C161.135 4.75878 137.535 7.55878 113.268 12.7588C60.4683 23.9588 32.6017 40.8921 17.935 70.4921C10.4683 85.5588 8.46832 95.1588 6.60165 124.092C5.93498 136.492 4.60165 153.692 3.80165 162.092C-0.19835 207.692 -1.39835 331.959 1.93498 366.492C5.93498 407.959 12.8683 429.159 28.0683 445.425C36.735 454.625 46.335 460.359 60.6017 464.625C79.535 470.492 91.0017 471.692 133.268 472.625L173.935 473.425L173.535 478.759C172.468 493.425 165.535 505.159 150.735 517.425C144.735 522.359 139.935 526.759 139.935 527.292C139.935 527.692 142.602 531.159 145.802 534.759L151.535 541.425L164.068 541.292C177.935 541.292 187.135 539.025 201.935 532.225C218.602 524.492 230.735 511.959 245.802 487.159C248.335 482.892 250.335 482.225 279.402 476.759L300.602 472.625L349.268 473.559C401.935 474.492 401.935 474.492 443.935 466.625C468.202 461.959 498.202 449.559 519.402 435.425C530.468 427.959 546.202 411.559 551.935 401.559C561.002 385.692 562.735 378.225 564.868 348.759C565.935 331.959 566.468 313.292 565.935 300.092C562.068 194.225 559.002 160.359 549.135 111.025C539.668 63.6921 525.002 34.6254 503.402 19.9588C494.202 13.8254 475.935 8.09211 456.602 5.55878C447.802 4.35878 422.868 2.75878 401.268 1.95878C349.935 0.092114 230.068 -0.707886 211.268 0.758781ZM357.268 23.4254C464.602 26.2254 486.602 30.0921 501.135 48.4921C517.935 69.9588 529.935 116.359 536.468 185.425C542.868 252.759 544.335 355.425 539.135 372.759C531.268 399.159 512.068 416.759 473.535 433.159C455.002 441.025 443.135 443.959 402.602 450.092C386.602 452.625 379.002 452.892 332.602 452.759L280.602 452.625L260.868 456.625C234.068 462.225 232.868 462.892 222.735 480.359C215.802 492.492 205.402 503.959 196.735 508.892C187.135 514.359 186.202 513.959 189.935 505.692C195.135 494.492 197.535 482.759 197.002 471.959C196.468 460.625 193.935 456.225 185.935 452.225C181.268 449.825 176.335 449.559 134.068 448.759C89.6683 447.825 86.6017 447.559 74.2017 444.359C45.535 436.759 36.2017 426.359 29.2683 394.092C24.2017 371.159 23.535 357.159 23.8017 281.425C23.935 213.425 24.6017 195.025 27.935 152.092C28.6017 143.292 29.535 129.425 29.935 121.425C31.935 87.2921 39.8017 70.3588 60.2017 56.6254C82.4683 41.4254 125.668 31.0254 186.602 26.0921C234.602 22.0921 280.468 21.4254 357.268 23.4254Z" fill="white"/>
</svg>
