<svg width="691" height="491" viewBox="0 0 691 491" fill="none" xmlns="http://www.w3.org/2000/svg">
<g clip-path="url(#clip0_0_1)">
<path d="M257.86 21.259C196.671 24.7258 167.867 27.1526 138.248 31.6594C73.8038 41.3665 39.7916 56.0427 21.8903 81.6971C12.7769 94.7554 10.3359 103.076 8.05756 128.152C7.24386 138.899 5.61648 153.807 4.64005 161.087C-0.242095 200.608 -1.70674 308.311 2.36172 338.241C7.24386 374.181 15.7062 392.554 34.2585 406.652C44.8365 414.625 56.5536 419.595 73.9667 423.293C97.0755 428.378 111.071 429.418 162.658 430.226L212.294 430.92L211.806 435.543C210.503 448.254 202.042 458.424 183.978 469.055C176.654 473.331 170.795 477.144 170.795 477.606C170.795 477.953 174.051 480.958 177.957 484.078L184.954 489.856L200.251 489.74C217.177 489.74 228.405 487.775 246.47 481.882C266.811 475.18 281.62 464.318 300.01 442.823C303.102 439.125 305.543 438.547 341.021 433.809L366.895 430.226L426.294 431.036C490.577 431.844 490.577 431.844 541.839 425.026C571.458 420.982 608.074 410.235 633.95 397.985C647.456 391.514 666.66 377.301 673.658 368.633C684.724 354.882 686.839 348.41 689.442 322.871C690.745 308.311 691.396 292.132 690.745 280.692C686.025 188.937 682.283 159.585 670.239 116.827C658.685 75.8034 640.784 50.6113 614.421 37.8997C603.192 32.5839 580.897 27.6148 557.3 25.4191C546.559 24.3792 516.126 22.9924 489.763 22.2991C427.109 20.6812 280.806 19.9879 257.86 21.259ZM436.059 40.9042C567.064 43.3309 593.916 46.6822 611.653 62.6296C632.159 81.2348 646.805 121.45 654.779 181.31C662.591 239.668 664.381 328.649 658.035 343.672C648.433 366.553 624.998 381.807 577.967 396.021C555.347 402.838 540.863 405.382 491.391 410.697C471.863 412.893 462.587 413.124 405.953 413.008L342.486 412.893L318.4 416.359C285.688 421.212 284.224 421.791 271.856 436.93C263.394 447.445 250.701 457.384 240.122 461.659C228.405 466.397 227.267 466.05 231.823 458.886C238.169 449.179 241.099 439.01 240.448 429.65C239.797 419.826 236.705 416.012 226.941 412.546C221.245 410.466 215.223 410.235 163.635 409.542C109.444 408.732 105.701 408.501 90.5659 405.728C55.5771 399.141 44.1855 390.127 35.723 362.162C29.539 342.286 28.7253 330.151 29.0508 264.514C29.2135 205.577 30.0272 189.63 34.0957 152.42C34.9094 144.793 36.0486 132.775 36.5368 125.841C38.9779 96.2576 48.5795 81.5815 73.4784 69.6787C100.656 56.5048 153.382 47.4911 227.755 43.2154C286.34 39.7486 342.322 39.1708 436.059 40.9042Z" fill="white"/>
</g>
<defs>
<clipPath id="clip0_0_1">
<rect width="691" height="491" fill="white"/>
</clipPath>
</defs>
</svg>
